<?xml version="1.0" encoding="UTF-8" standalone="no"?>
<svg
   width="64"
   height="64"
   version="1.1"
   id="svg73"
   sodipodi:docname="com.system76.CosmicSettings.svg"
   inkscape:version="1.4.2 (ebf0e940d0, 2025-05-08)"
   xmlns:inkscape="http://www.inkscape.org/namespaces/inkscape"
   xmlns:sodipodi="http://sodipodi.sourceforge.net/DTD/sodipodi-0.dtd"
   xmlns:xlink="http://www.w3.org/1999/xlink"
   xmlns="http://www.w3.org/2000/svg"
   xmlns:svg="http://www.w3.org/2000/svg"
   xmlns:rdf="http://www.w3.org/1999/02/22-rdf-syntax-ns#"
   xmlns:cc="http://creativecommons.org/ns#"
   xmlns:dc="http://purl.org/dc/elements/1.1/">
  <metadata
     id="metadata77">
    <rdf:RDF>
      <cc:Work
         rdf:about="">
        <dc:format>image/svg+xml</dc:format>
        <dc:type
           rdf:resource="http://purl.org/dc/dcmitype/StillImage" />
      </cc:Work>
    </rdf:RDF>
  </metadata>
  <sodipodi:namedview
     pagecolor="#01012c"
     bordercolor="#666666"
     borderopacity="1"
     objecttolerance="10"
     gridtolerance="10"
     guidetolerance="10"
     inkscape:pageopacity="0"
     inkscape:pageshadow="2"
     inkscape:window-width="1366"
     inkscape:window-height="731"
     id="namedview75"
     showgrid="false"
     inkscape:zoom="9.7223905"
     inkscape:cx="26.17669"
     inkscape:cy="34.970823"
     inkscape:window-x="0"
     inkscape:window-y="0"
     inkscape:window-maximized="1"
     inkscape:current-layer="g877"
     inkscape:document-rotation="0"
     inkscape:pagecheckerboard="0"
     inkscape:showpageshadow="2"
     inkscape:deskcolor="#d1d1d1" />
  <defs
     id="defs29">
    <linearGradient
       id="linearGradient1"
       inkscape:collect="always">
      <stop
         style="stop-color:#ed0cb8;stop-opacity:1;"
         offset="0"
         id="stop1" />
      <stop
         style="stop-color:#ff9e84;stop-opacity:1;"
         offset="1"
         id="stop2" />
    </linearGradient>
    <linearGradient
       id="linearGradient5"
       inkscape:collect="always">
      <stop
         style="stop-color:#a8ffff;stop-opacity:1;"
         offset="0"
         id="stop6" />
      <stop
         style="stop-color:#00ffff;stop-opacity:1;"
         offset="1"
         id="stop5" />
    </linearGradient>
    <inkscape:path-effect
       effect="copy_rotate"
       starting_point="33.737285,32.005951"
       origin="31.985995,32.005951"
       id="path-effect4"
       is_visible="true"
       lpeversion="1.2"
       lpesatellites=""
       method="normal"
       num_copies="6"
       starting_angle="0"
       rotation_angle="60"
       gap="-0.01"
       copies_to_360="true"
       mirror_copies="false"
       split_items="false"
       link_styles="false" />
    <inkscape:path-effect
       effect="copy_rotate"
       starting_point="35.802203,32.00595"
       origin="31.985993,32.00595"
       id="path-effect2"
       is_visible="true"
       lpeversion="1.2"
       lpesatellites=""
       method="normal"
       num_copies="15"
       starting_angle="0"
       rotation_angle="36"
       gap="-0.01"
       copies_to_360="true"
       mirror_copies="false"
       split_items="false"
       link_styles="false" />
    <clipPath
       clipPathUnits="userSpaceOnUse"
       id="clipPath16">
      <g
         id="g24"
         style="display:block">
        <path
           style="opacity:0.85;fill:#ffffff"
           d="m 14.451038,1029.43 -1.304681,-1.9316 -1.186255,-0.6724 c -0.663352,-0.3762 -1.174039,-0.7034 -1.158542,-0.743 0.01524,-0.038 0.653397,-1.0172 1.418124,-2.1746 0.764726,-1.1574 1.378917,-2.138 1.364866,-2.1792 -0.01406,-0.042 -0.05275,-0.076 -0.08598,-0.076 -0.03325,0 -0.479977,0.2604 -0.992745,0.5784 -1.210858,0.7512 -2.9427035,1.8074 -3.3212471,2.0258 -0.2640458,0.152 -0.3015498,0.16 -0.3305804,0.066 -0.01802,-0.058 -0.2175258,-1.0874 -0.4433704,-2.2884 l -0.4106272,-2.1834 0.468897,-2.609 c 0.257894,-1.4354 0.5090238,-2.832 0.5580676,-3.104 0.084698,-0.4698 0.166894,-0.6298 1.6395035,-3.1848 l 1.550334,-2.69 2.371445,-1.1888 c 1.304295,-0.6538 2.392833,-1.1898 2.418972,-1.1904 0.175594,0 -0.07083,0.371 -0.887136,1.3562 -0.514062,0.6204 -1.038335,1.2572 -1.165052,1.4156 -0.18114,0.226 -0.371913,0.6782 -0.892408,2.1148 l -0.662016,1.8274 0.263833,1.6358 0.263833,1.6358 0.438476,0.409 c 0.241159,0.2248 0.544231,0.4982 0.673488,0.607 l 0.235015,0.198 0.532928,-0.2438 0.532928,-0.2438 0.03858,-0.3324 c 0.03088,-0.266 0.11964,-1.7456 0.124716,-2.0784 0.0012,-0.08 2.978442,-3.3722 3.077665,-3.405 0.03045,-0.02 0.599129,0.5446 1.263719,1.232 l 1.208348,1.2502 0.22988,0.9326 c 0.12644,0.5126 0.257288,1.0364 0.290792,1.1638 0.05094,0.194 0.13802,0.2824 0.531976,0.5418 l 0.47106,0.3104 0.367356,-0.6126 0.367358,-0.6124 0.0198,-1.291 0.0198,-1.2906 -1.157528,-1.8872 c -0.954432,-1.5558 -1.20026,-1.9138 -1.401088,-2.0398 -0.13398,-0.082 -1.095858,-0.7092 -2.137548,-1.3894 -1.841852,-1.203 -1.895173,-1.2434 -1.937139,-1.4728 -0.02375,-0.13 -0.03321,-0.2446 -0.02103,-0.2552 0.03029,-0.028 5.749883,1.2418 5.890871,1.3058 0.06204,0.028 1.065208,0.69 2.229268,1.4712 l 2.116466,1.4196 0.259062,0.7756 c 0.1425,0.4264 0.6072,1.816 1.03271,3.0876 l 0.773666,2.3122 -0.04266,1.3672 c -0.02346,0.7522 -0.05784,1.7152 -0.07644,2.1402 l -0.0338,0.7732 -0.797778,2.3498 -0.797774,2.35 -1.13284,1.1538 -1.132844,1.1536 -0.718944,1.4616 c -0.39542,0.8038 -0.732238,1.4744 -0.748486,1.4904 -0.0164,0.02 -0.78263,-1.2372 -1.703066,-2.785 l -1.673516,-2.8134 -0.946258,-0.309 -0.946258,-0.3086 -0.957628,0.7014 -0.957631,0.7014 -0.07635,0.3336 c -0.321508,1.4038 -1.436653,5.868 -1.465689,5.8674 -0.01998,-4e-4 -0.623459,-0.87 -1.341034,-1.9324 z"
           id="path18" />
        <path
           style="opacity:0.85;fill:#ffffff"
           d="m 42.712226,1005.3628 c -0.39073,0 -0.712222,0.02 -0.712222,0.04 0,0.022 0.233048,0.7664 0.515112,1.6546 0.526198,1.6564 0.556778,1.7886 0.620236,2.6308 0.02032,0.2704 0.04914,0.623 0.0657,0.7854 0.0166,0.162 0.18952,2.1978 0.383708,4.522 l 0.352166,4.2234 -0.24967,4.1614 -0.249674,4.1616 -0.720106,1.8642 C 42.322786,1030.4316 42,1031.2872 42,1031.3108 v 0 c 0,0.022 0.650404,-0.11 1.442838,-0.2932 1.278186,-0.2984 1.484496,-0.3294 1.829174,-0.2824 0.21369,0.028 1.31507,0.184 2.44941,0.3442 2.373532,0.3364 2.1336,0.3114 2.081472,0.226 -0.0226,-0.036 -0.386212,-1.152 -0.806832,-2.4776 l -0.764784,-2.4102 -0.07622,-1.8212 c -0.0423,-1.0008 -0.06678,-1.8234 -0.0552,-1.8374 0.0118,-0.02 0.631846,0.06 1.379764,0.158 l 1.361368,0.18 1.78975,-1.2508 1.789752,-1.2536 0.788436,-1.6464 0.791064,-1.6462 -0.10514,-2.335 -0.10514,-2.335 -0.693826,-1.7834 -0.696448,-1.7834 -1.508544,-0.9362 -1.51117,-0.9334 -2.052564,-0.13 -2.055192,-0.128 -1.923784,-0.7882 -1.926414,-0.7882 z m 7.563734,8.5088 0.735874,0.6698 c 0.404308,0.369 0.870654,0.7956 1.035482,0.9494 l 0.299604,0.2798 -0.1866,1.189 c -0.10196,0.6538 -0.19856,1.2112 -0.215504,1.24 -0.017,0.028 -0.537078,0.3638 -1.156372,0.7478 -1.248602,0.7746 -1.118198,0.7408 -2.20237,0.5758 l -0.701708,-0.108 0.0052,-1.4392 c 0.0052,-1.2098 0.14724,-3.6212 0.228646,-3.8738 0.014,-0.044 0.307322,-0.092 0.72536,-0.118 0.385928,-0.024 0.865874,-0.06 1.067018,-0.082 z"
           id="path20" />
        <path
           style="opacity:0.85;fill:#ffffff"
           d="m 35.708826,1011.359 c -0.05144,6e-4 -0.692122,0.3742 -1.422784,0.8306 l -1.329116,0.8306 -0.883542,1.7586 -0.883544,1.7562 -0.19492,3.2174 -0.19492,3.2148 0.964556,2.684 0.96709,2.6842 1.303798,1.3178 1.306328,1.315 1.384812,0.194 c 0.761258,0.104 1.387868,0.198 1.392402,0.198 0.0044,0 0.368606,-0.166 0.810128,-0.3744 0.441522,-0.2094 0.97137,-0.459 1.177218,-0.5536 l 0.374682,-0.172 0.678482,-1.1306 0.68101,-1.1306 0.478482,-2.3278 0.481012,-2.3276 -0.05318,-2.1152 -0.05062,-2.1176 -0.683544,-2.1432 c -0.37585,-1.18 -0.706634,-2.1856 -0.734178,-2.2356 -0.02756,-0.05 -0.587404,-0.6472 -1.243038,-1.3278 l -1.189874,-1.2382 -1.52152,-0.4024 c -0.836712,-0.2216 -1.563718,-0.4032 -1.61519,-0.4026 z m 2.126582,9.7776 c 0.02594,-0.02 0.437252,0.333 0.916458,0.764 l 0.873418,0.7846 0.09368,0.4228 c 0.05196,0.2322 0.15906,0.7338 0.237976,1.1154 l 0.1443,0.6922 -0.278478,1.2126 -0.278484,1.21 -0.873418,0.4436 -0.873414,0.4432 -0.774686,-0.2588 -0.777216,-0.2614 -0.4481,-1.3512 -0.450634,-1.3482 0.43038,-1.3948 c 0.236404,-0.7664 0.430076,-1.422 0.430378,-1.4588 4.74e-4,-0.052 1.394238,-0.9206 1.62785,-1.0152 z"
           id="path22" />
      </g>
    </clipPath>
    <inkscape:path-effect
       effect="powerclip"
       id="path-effect26"
       is_visible="true"
       lpeversion="1"
       inverse="true"
       flatten="false"
       hide_clip="false"
       message="" />
    <clipPath
       clipPathUnits="userSpaceOnUse"
       id="clipPath9">
      <path
         style="display:block;opacity:0.85;fill:#ffffff;stroke-width:1.02768"
         d="m 47.458967,1023.3069 c 0.85688,1.8179 1.286598,4.0198 1.286598,6.5331 0,2.4237 -0.471043,4.5945 -1.412286,6.367 -0.94152,1.7735 -2.198842,3.2676 -3.705671,4.4122 -1.50626,1.1449 -3.245953,1.9605 -5.149374,2.5225 -1.904832,0.5606 -3.852868,0.8052 -5.777238,0.8052 -3.850431,0 -7.996222,-1.2967 -10.611304,-2.8214 -2.984685,-1.5261 -7.041712,-6.2092 -6.960672,-6.9347 0.105349,-0.9437 2.398251,-4.0793 3.788125,-6.1999 0.67691,-1.0328 0.945189,-1.5206 1.959266,-0.5557 1.267312,1.6672 3.027389,2.7385 4.649929,3.6343 1.422401,0.728 4.427349,1.775 6.001755,1.9875 1.317989,0.2094 3.286601,0.2094 3.429864,-2.016 0,-0.8517 -0.665023,-1.6274 -1.521901,-2.3915 -0.858009,-0.7623 -1.43195,-1.4142 -2.70807,-2.2454 -5.062162,-4.2564 -7.79732,-6.1773 -10.368074,-10.4259 -0.858006,-1.6832 -1.354021,-3.5518 -1.354021,-5.7516 0,-2.1546 0.309343,-4.2556 1.062619,-5.8717 2.446826,-4.82161 7.391989,-7.34282 11.820387,-7.40606 3.783597,0 6.559511,1.09784 9.049178,2.31298 3.362337,1.54068 5.501784,3.55878 7.329115,5.34908 0.71227,0.6978 0.09745,1.54 -0.273887,2.159 -0.933252,1.5561 -2.253588,3.4749 -2.665561,4.398 -0.327914,0.6711 -0.934034,0.9233 -1.436782,0.4557 0,0 -1.242737,-1.1321 -2.246817,-1.8289 -2.666217,-1.599 -5.433717,-3.9539 -8.253986,-4.2475 -0.753274,0 -1.510094,0.2379 -1.865076,0.6416 -0.356113,0.4043 -0.485072,1.2175 -0.466448,1.8457 0.03355,1.1324 0.328115,1.3432 1.320701,2.3637 0.856877,0.6962 1.532222,1.1971 3.266048,2.1905 1.296029,0.7422 2.886235,1.7855 4.372119,2.7054 1.485027,0.9204 2.977366,2.1036 4.275001,3.4048 1.29735,1.3031 2.307877,2.7902 3.166455,4.6077 z"
         id="path11" />
    </clipPath>
    <inkscape:path-effect
       effect="powerclip"
       id="path-effect13"
       is_visible="true"
       lpeversion="1"
       inverse="true"
       flatten="false"
       hide_clip="false"
       message="" />
    <clipPath
       clipPathUnits="userSpaceOnUse"
       id="clipPath9-6">
      <circle
         style="display:none;fill:#e6e6e6"
         cx="29.999001"
         cy="30"
         r="18"
         id="circle11"
         d="m 47.999001,30 a 18,18 0 0 1 -18,18 18,18 0 0 1 -18,-18 18,18 0 0 1 18,-18 18,18 0 0 1 18,18 z" />
      <path
         id="lpe_path-effect13"
         style="fill:#e6e6e6"
         class="powerclip"
         d="M -1.0002841,-1.4914529 H 60.61641 V 47.27746 H -1.0002841 Z M 47.999001,30 a 18,18 0 0 0 -18,-18 18,18 0 0 0 -18,18 18,18 0 0 0 18,18 18,18 0 0 0 18,-18 z" />
    </clipPath>
    <inkscape:path-effect
       effect="powerclip"
       id="path-effect13-7"
       is_visible="true"
       lpeversion="1"
       inverse="true"
       flatten="false"
       hide_clip="false"
       message="" />
    <clipPath
       clipPathUnits="userSpaceOnUse"
       id="clipath_lpe_path-effect13-7">
      <circle
         style="display:none;fill:#e6e6e6"
         cx="29.999001"
         cy="30"
         r="18"
         id="circle1" />
    </clipPath>
    <clipPath
       clipPathUnits="userSpaceOnUse"
       id="clipPath44">
      <path
         id="path46"
         style="display:block;opacity:0.85;fill:#f2f2f2;stroke-width:4.39162"
         d="m 17.570312,8.4453125 a 6.5431988,7.4283052 9.9958727e-8 0 0 -6.535156,7.4394535 6.5431988,7.4283052 9.9958727e-8 0 0 6.552735,7.417968 6.5431988,7.4283052 9.9958727e-8 0 0 6.535156,-7.4375 6.5431988,7.4283052 9.9958727e-8 0 0 -6.552735,-7.4199215 z M 45.646484,41.177734 a 6.5431986,7.0703472 2.4665357e-6 0 0 -6.533203,7.080078 6.5431986,7.0703472 2.4665357e-6 0 0 6.550781,7.060547 6.5431986,7.0703472 2.4665357e-6 0 0 6.535157,-7.080078 6.5431986,7.0703472 2.4665357e-6 0 0 -6.552735,-7.060547 z" />
    </clipPath>
    <inkscape:path-effect
       effect="powerclip"
       id="path-effect48"
       is_visible="true"
       lpeversion="1"
       inverse="true"
       flatten="false"
       hide_clip="false"
       message="" />
    <inkscape:path-effect
       effect="copy_rotate"
       starting_point="35.802203,32.00595"
       origin="31.985993,32.00595"
       id="path-effect2-9"
       is_visible="true"
       lpeversion="1.2"
       lpesatellites=""
       method="normal"
       num_copies="15"
       starting_angle="12"
       rotation_angle="24"
       gap="-0.01"
       copies_to_360="true"
       mirror_copies="false"
       split_items="false"
       link_styles="false" />
    <inkscape:path-effect
       effect="copy_rotate"
       starting_point="35.802203,32.00595"
       origin="31.985993,32.00595"
       id="path-effect2-2"
       is_visible="true"
       lpeversion="1.2"
       lpesatellites=""
       method="normal"
       num_copies="15"
       starting_angle="0"
       rotation_angle="36"
       gap="-0.01"
       copies_to_360="true"
       mirror_copies="false"
       split_items="false"
       link_styles="false" />
    <radialGradient
       inkscape:collect="always"
       xlink:href="#linearGradient5"
       id="radialGradient6"
       cx="39.184654"
       cy="23.993633"
       fx="39.184654"
       fy="23.993633"
       r="6.3172107"
       gradientUnits="userSpaceOnUse"
       gradientTransform="matrix(1.1889356,0,0,1.1889356,-6.0432917,-6.0288938)" />
    <linearGradient
       inkscape:collect="always"
       xlink:href="#linearGradient1"
       id="linearGradient2"
       x1="8.3568094"
       y1="31.913285"
       x2="55.615179"
       y2="31.913285"
       gradientUnits="userSpaceOnUse"
       gradientTransform="matrix(1.2337809,0,0,1.2337809,-7.4777153,-7.4642125)" />
  </defs>
  <g
     id="g877"
     transform="matrix(1.1,0,0,1.1,-3.1845928,-3.2065454)">
    <path
       style="fill:#f5f7fa;stroke-width:0.204426;fill-opacity:1"
       d=""
       id="path3" />
    <path
       id="rect2"
       style="fill:url(#linearGradient2);stroke:none;stroke-width:0.937673;stroke-linecap:round"
       d="m 30.06284,2.9150413 c -0.460355,0 -0.831749,0.8963652 -0.831749,2.0097065 V 7.390438 C 27.595827,7.5723294 26.007873,7.9138227 24.48337,8.3995129 L 23.480628,6.1470373 C 23.027791,5.1299491 22.324239,4.460959 21.903685,4.6482019 L 18.38881,6.2145905 c -0.420555,0.1872423 -0.395839,1.1551681 0.057,2.1722564 l 1.006964,2.2609191 c -1.399589,0.824156 -2.711113,1.782764 -3.918084,2.856233 L 13.689643,11.842613 C 12.86227,11.097635 11.949975,10.774307 11.641938,11.116417 l -2.5754645,2.858342 c -0.3080368,0.34211 0.1099262,1.218293 0.9373005,1.963264 l 1.842935,1.659275 c -0.941005,1.30951 -1.759183,2.712627 -2.4340254,4.194629 L 7.0631008,21.029843 C 6.0042503,20.6858 5.0373239,20.760903 4.8950665,21.198725 l -1.1885134,3.660537 c -0.1422573,0.437823 0.5962022,1.066131 1.6550528,1.410172 l 2.3432498,0.762084 c -0.320904,1.561212 -0.493679,3.176091 -0.5045375,4.82794 L 4.7472939,32.117004 C 3.6400515,32.23338 2.7865751,32.69569 2.8346952,33.153523 l 0.4032078,3.827309 c 0.04812,0.457833 0.97635,0.732792 2.0835927,0.616422 l 2.4530242,-0.257546 c 0.3515091,1.600944 0.8575332,3.143002 1.5030572,4.612613 L 7.139098,43.187278 c -0.9641825,0.55667 -1.5559075,1.326037 -1.3257309,1.724716 l 1.9252645,3.333327 C 7.9688095,48.643999 8.9298187,48.517002 9.894,47.960331 l 2.146924,-1.24129 c 0.963228,1.303427 2.052333,2.510231 3.246774,3.601428 l -1.458727,2.007596 c -0.654404,0.900712 -0.883305,1.844668 -0.51087,2.115258 l 3.113778,2.260919 c 0.372434,0.270591 1.199085,-0.235025 1.853489,-1.135737 l 1.454505,-2.003374 c 1.397519,0.797995 2.879422,1.465538 4.428954,1.982264 l -0.512982,2.410803 c -0.231477,1.089013 -0.05553,2.042766 0.394763,2.138479 l 3.763978,0.800084 c 0.450294,0.09571 0.999257,-0.703258 1.230734,-1.792271 l 0.512982,-2.412914 c 0.798823,0.07811 1.608796,0.118218 2.427691,0.118218 0.818451,0 1.62718,-0.0402 2.425581,-0.118218 l 0.512982,2.412914 c 0.231477,1.089012 0.780439,1.887987 1.230733,1.792271 l 3.763978,-0.800084 c 0.450288,-0.09571 0.626242,-1.049466 0.394765,-2.138479 L 39.80316,55.547395 c 1.549604,-0.516659 3.03136,-1.182203 4.428954,-1.980153 l 1.454504,2.001263 c 0.654406,0.900712 1.481055,1.408438 1.853489,1.137848 l 3.111669,-2.26303 c 0.372434,-0.270589 0.145645,-1.212435 -0.508761,-2.113147 L 48.68429,50.32258 c 1.194553,-1.091198 2.283448,-2.297971 3.246773,-3.601428 l 2.146923,1.239179 c 0.964183,0.556671 1.925192,0.683669 2.155369,0.28499 l 1.925264,-3.333327 c 0.230177,-0.398679 -0.361548,-1.165934 -1.325731,-1.722605 l -2.138479,-1.234957 c 0.645622,-1.469684 1.151487,-3.013685 1.503058,-4.614724 l 2.453024,0.257546 c 1.107243,0.116376 2.035475,-0.158589 2.083593,-0.616422 l 0.403208,-3.827309 c 0.04812,-0.457833 -0.805358,-0.920149 -1.9126,-1.036519 l -2.453023,-0.257546 c -0.01082,-1.651966 -0.183629,-3.266621 -0.504538,-4.82794 l 2.343251,-0.762084 c 1.05885,-0.344041 1.797309,-0.972349 1.655052,-1.410172 L 59.07692,21.198725 C 58.934663,20.760902 57.967737,20.6858 56.908886,21.029843 l -2.349583,0.762084 c -0.674866,-1.482098 -1.490852,-2.885042 -2.431914,-4.194629 l 1.840824,-1.659275 c 0.827379,-0.744972 1.245337,-1.619042 0.9373,-1.961152 l -2.573354,-2.860454 c -0.308036,-0.34211 -1.222441,-0.01877 -2.049816,0.726196 l -1.845045,1.661386 c -1.20702,-1.073512 -2.51843,-2.032056 -3.918083,-2.856233 L 45.52618,8.3868469 c 0.452837,-1.0170883 0.477552,-1.9850129 0.057,-2.1722564 L 42.068301,4.6482019 C 41.647746,4.460959 40.944195,5.1299491 40.491358,6.1470373 L 39.488616,8.3995129 C 37.964089,7.9138288 36.376187,7.5723134 34.740895,7.390438 V 4.9247478 c 0,-1.1133413 -0.369282,-2.0097065 -0.829636,-2.0097065 z m 1.923153,9.0732327 c 11.093234,0 20.035845,8.942611 20.035845,20.035845 0,11.093235 -8.942611,20.035844 -20.035845,20.035844 -11.093234,0 -20.035844,-8.942609 -20.035844,-20.035844 0,-11.093234 8.94261,-20.035845 20.035844,-20.035845 z" />
    <path
       style="fill:none;stroke:#a2ff5c;stroke-width:2.1617;stroke-linecap:butt;stroke-dasharray:none;stroke-dashoffset:0;stroke-opacity:1"
       id="path2-6"
       sodipodi:type="arc"
       sodipodi:cx="31.985994"
       sodipodi:cy="32.02412"
       sodipodi:rx="16.008142"
       sodipodi:ry="16.008142"
       sodipodi:start="0"
       sodipodi:end="4.712389"
       sodipodi:arc-type="arc"
       d="M 47.994137,32.02412 A 16.008142,16.008142 0 0 1 38.112045,46.813716 16.008142,16.008142 0 0 1 20.666528,43.343586 16.008142,16.008142 0 0 1 17.196399,25.898069 16.008142,16.008142 0 0 1 31.985994,16.015978"
       sodipodi:open="true" />
    <path
       style="fill:none;stroke:#16ffa6;stroke-width:2.1617;stroke-linecap:butt;stroke-dasharray:none;stroke-dashoffset:0;stroke-opacity:1"
       id="path2-6-6"
       sodipodi:type="arc"
       sodipodi:cx="31.985994"
       sodipodi:cy="32.02412"
       sodipodi:rx="10.176718"
       sodipodi:ry="10.176718"
       sodipodi:start="0.52359878"
       sodipodi:end="4.1887902"
       sodipodi:arc-type="arc"
       d="M 40.79929,37.112479 A 10.176718,10.176718 0 0 1 30.218826,42.046231 10.176718,10.176718 0 0 1 21.963884,33.791289 10.176718,10.176718 0 0 1 26.897635,23.210824"
       sodipodi:open="true" />
    <path
       style="fill:none;stroke:#ff64be;stroke-width:2.1617;stroke-linecap:butt;stroke-dasharray:none;stroke-dashoffset:0;stroke-opacity:1"
       id="path2-6-6-8"
       sodipodi:type="arc"
       sodipodi:cx="31.985994"
       sodipodi:cy="32.02412"
       sodipodi:rx="4.9483624"
       sodipodi:ry="4.9483624"
       sodipodi:start="1.3089969"
       sodipodi:end="3.6651914"
       sodipodi:arc-type="arc"
       d="m 33.266725,36.803871 a 4.9483624,4.9483624 0 0 1 -5.20653,-1.767378 4.9483624,4.9483624 0 0 1 -0.359608,-5.486554"
       sodipodi:open="true" />
    <circle
       style="fill:url(#radialGradient6);fill-opacity:1;stroke:none;stroke-width:2.76804;stroke-linecap:butt;stroke-linejoin:round;stroke-dasharray:none;stroke-dashoffset:0;stroke-opacity:1;paint-order:normal"
       id="path5"
       cx="37.851513"
       cy="25.817545"
       r="7.5107565" />
  </g>
</svg>
