<?xml version="1.0" encoding="UTF-8" standalone="no"?>
<svg
   width="64"
   height="64"
   version="1.1"
   id="svg73"
   sodipodi:docname="com.system76.CosmicAppLibrary.svg"
   inkscape:version="1.4.2 (ebf0e940d0, 2025-05-08)"
   xmlns:inkscape="http://www.inkscape.org/namespaces/inkscape"
   xmlns:sodipodi="http://sodipodi.sourceforge.net/DTD/sodipodi-0.dtd"
   xmlns="http://www.w3.org/2000/svg"
   xmlns:svg="http://www.w3.org/2000/svg"
   xmlns:rdf="http://www.w3.org/1999/02/22-rdf-syntax-ns#"
   xmlns:cc="http://creativecommons.org/ns#"
   xmlns:dc="http://purl.org/dc/elements/1.1/">
  <metadata
     id="metadata77">
    <rdf:RDF>
      <cc:Work
         rdf:about="">
        <dc:format>image/svg+xml</dc:format>
        <dc:type
           rdf:resource="http://purl.org/dc/dcmitype/StillImage" />
      </cc:Work>
    </rdf:RDF>
  </metadata>
  <sodipodi:namedview
     pagecolor="#01012c"
     bordercolor="#666666"
     borderopacity="1"
     objecttolerance="10"
     gridtolerance="10"
     guidetolerance="10"
     inkscape:pageopacity="0"
     inkscape:pageshadow="2"
     inkscape:window-width="1366"
     inkscape:window-height="731"
     id="namedview75"
     showgrid="false"
     inkscape:zoom="6.8757232"
     inkscape:cx="15.271121"
     inkscape:cy="26.760821"
     inkscape:window-x="0"
     inkscape:window-y="0"
     inkscape:window-maximized="1"
     inkscape:current-layer="g877"
     inkscape:document-rotation="0"
     inkscape:pagecheckerboard="0"
     inkscape:showpageshadow="2"
     inkscape:deskcolor="#d1d1d1" />
  <defs
     id="defs29">
    <inkscape:path-effect
       effect="tiling"
       id="path-effect1"
       is_visible="true"
       lpeversion="1.3.1"
       unit="px"
       seed="1;1"
       lpesatellites="#path9 | #path2 | #path10 | #path11 | #path5 | #path6 | #path7 | #path8"
       num_rows="3"
       num_cols="3"
       gapx="4"
       gapy="4"
       offset="0"
       offset_type="false"
       scale="0"
       rotate="0"
       mirrorrowsx="false"
       mirrorrowsy="false"
       mirrorcolsx="false"
       mirrorcolsy="false"
       mirrortrans="false"
       shrink_interp="false"
       split_items="true"
       link_styles="false"
       interpolate_scalex="false"
       interpolate_scaley="true"
       interpolate_rotatex="false"
       interpolate_rotatey="true"
       random_scale="false"
       random_rotate="false"
       random_gap_y="false"
       random_gap_x="false"
       transformorigin="" />
    <filter
       style="color-interpolation-filters:sRGB;"
       inkscape:label="Blur"
       id="filter6"
       x="-0.044145008"
       y="-0.044145008"
       width="1.08829"
       height="1.08829">
      <feGaussianBlur
         stdDeviation="1 1"
         result="blur"
         id="feGaussianBlur6" />
    </filter>
    <filter
       style="color-interpolation-filters:sRGB;"
       inkscape:label="Blur"
       id="filter7"
       x="-0.098100013"
       y="-0.098100021"
       width="1.1962"
       height="1.1962">
      <feGaussianBlur
         stdDeviation="2 2"
         result="blur"
         id="feGaussianBlur7" />
    </filter>
  </defs>
  <g
     id="g877"
     transform="matrix(1.1,0,0,1.1,-3.1845928,-3.2065454)">
    <path
       style="fill:#08d3b8;fill-opacity:1;stroke:none;stroke-width:1.92594;stroke-linecap:round;stroke-linejoin:round;stroke-dasharray:none"
       id="rect1"
       width="14.021075"
       height="14.576137"
       x="8.2587023"
       y="8.9977198"
       rx="3.3446565"
       ry="3.3446565"
       inkscape:path-effect="#path-effect1"
       sodipodi:type="rect"
       d="m 11.603359,8.9977198 h 7.331762 c 1.85294,0 3.344657,1.4917172 3.344657,3.3446562 V 20.2292 c 0,1.85294 -1.491717,3.344656 -3.344657,3.344656 h -7.331762 c -1.8529399,0 -3.3446567,-1.491716 -3.3446567,-3.344656 v -7.886824 c 0,-1.852939 1.4917168,-3.3446562 3.3446567,-3.3446562 z"
       transform="translate(-1.304322,-2.8559738)" />
    <path
       transform="translate(34.737828,-2.8559738)"
       style="fill:#0849b8;fill-opacity:1;stroke:none;stroke-width:1.92636;stroke-linecap:round;stroke-linejoin:round;stroke-dasharray:none"
       id="path2"
       d="m 11.603359,8.9977198 h 7.331762 c 1.85294,0 3.344657,1.4917172 3.344657,3.3446562 V 20.2292 c 0,1.85294 -1.491717,3.344656 -3.344657,3.344656 h -7.331762 c -1.8529399,0 -3.3446567,-1.491716 -3.3446567,-3.344656 v -7.886824 c 0,-1.852939 1.4917168,-3.3446562 3.3446567,-3.3446562 z" />
    <path
       transform="translate(34.737828,15.720163)"
       style="fill:#0888b8;fill-opacity:1;stroke:none;stroke-width:1.92594;stroke-linecap:round;stroke-linejoin:round;stroke-dasharray:none"
       id="path5"
       d="m 11.603359,8.9977198 h 7.331762 c 1.85294,0 3.344657,1.4917172 3.344657,3.3446562 V 20.2292 c 0,1.85294 -1.491717,3.344656 -3.344657,3.344656 h -7.331762 c -1.8529399,0 -3.3446567,-1.491716 -3.3446567,-3.344656 v -7.886824 c 0,-1.852939 1.4917168,-3.3446562 3.3446567,-3.3446562 z" />
    <path
       transform="translate(-1.304322,34.296299)"
       style="fill:#08d336;fill-opacity:1;stroke:none;stroke-width:1.92594;stroke-linecap:round;stroke-linejoin:round;stroke-dasharray:none"
       id="path6"
       d="m 11.603359,8.9977198 h 7.331762 c 1.85294,0 3.344657,1.4917172 3.344657,3.3446562 V 20.2292 c 0,1.85294 -1.491717,3.344656 -3.344657,3.344656 h -7.331762 c -1.8529399,0 -3.3446567,-1.491716 -3.3446567,-3.344656 v -7.886824 c 0,-1.852939 1.4917168,-3.3446562 3.3446567,-3.3446562 z" />
    <path
       transform="translate(16.716753,34.296299)"
       style="fill:#08d365;fill-opacity:1;stroke:none;stroke-width:1.92594;stroke-linecap:round;stroke-linejoin:round;stroke-dasharray:none"
       id="path7"
       d="m 11.603359,8.9977198 h 7.331762 c 1.85294,0 3.344657,1.4917172 3.344657,3.3446562 V 20.2292 c 0,1.85294 -1.491717,3.344656 -3.344657,3.344656 h -7.331762 c -1.8529399,0 -3.3446567,-1.491716 -3.3446567,-3.344656 v -7.886824 c 0,-1.852939 1.4917168,-3.3446562 3.3446567,-3.3446562 z" />
    <path
       transform="translate(34.737828,34.296299)"
       style="fill:#08d3b8;fill-opacity:1;stroke:none;stroke-width:1.92594;stroke-linecap:round;stroke-linejoin:round;stroke-dasharray:none"
       id="path8"
       d="m 11.603359,8.9977198 h 7.331762 c 1.85294,0 3.344657,1.4917172 3.344657,3.3446562 V 20.2292 c 0,1.85294 -1.491717,3.344656 -3.344657,3.344656 h -7.331762 c -1.8529399,0 -3.3446567,-1.491716 -3.3446567,-3.344656 v -7.886824 c 0,-1.852939 1.4917168,-3.3446562 3.3446567,-3.3446562 z" />
    <path
       transform="translate(16.716753,-2.8559738)"
       style="fill:#0888b8;fill-opacity:1;stroke:none;stroke-width:1.92594;stroke-linecap:round;stroke-linejoin:round;stroke-dasharray:none"
       id="path9"
       d="m 11.603359,8.9977198 h 7.331762 c 1.85294,0 3.344657,1.4917172 3.344657,3.3446562 V 20.2292 c 0,1.85294 -1.491717,3.344656 -3.344657,3.344656 h -7.331762 c -1.8529399,0 -3.3446567,-1.491716 -3.3446567,-3.344656 v -7.886824 c 0,-1.852939 1.4917168,-3.3446562 3.3446567,-3.3446562 z" />
    <path
       transform="translate(-1.304322,15.720163)"
       style="fill:#08d365;fill-opacity:1;stroke:none;stroke-width:1.92594;stroke-linecap:round;stroke-linejoin:round;stroke-dasharray:none"
       id="path10"
       d="m 11.603359,8.9977198 h 7.331762 c 1.85294,0 3.344657,1.4917172 3.344657,3.3446562 V 20.2292 c 0,1.85294 -1.491717,3.344656 -3.344657,3.344656 h -7.331762 c -1.8529399,0 -3.3446567,-1.491716 -3.3446567,-3.344656 v -7.886824 c 0,-1.852939 1.4917168,-3.3446562 3.3446567,-3.3446562 z" />
    <path
       style="fill:#08d3b8;fill-opacity:1;stroke:none;stroke-width:1.92594;stroke-linecap:round;stroke-linejoin:round;stroke-dasharray:none"
       id="path11"
       d="m 28.320112,24.717883 h 7.331762 c 1.85294,0 3.344657,1.491717 3.344657,3.344656 v 7.886824 c 0,1.85294 -1.491717,3.344656 -3.344657,3.344656 h -7.331762 c -1.85294,0 -3.344656,-1.491716 -3.344656,-3.344656 v -7.886824 c 0,-1.852939 1.491716,-3.344656 3.344656,-3.344656 z" />
  </g>
</svg>
